# xmcd
#
# Track frame offsets: 
#        150
#        11514
#        25322
#        36789
#        49532
#        59129
#        71256
#        84172
#        94865
#        106779
#        115434
#
# Disc length: 1664 seconds
#
# Revision: 0
# Processed by: cddbd v1.5.2PL0 Copyright (c) Steve Scherf et al.
# Submitted via: ExactAudioCopyFreeDBPlugin 1.0
#
DISCID=85067e0b
DTITLE=Linda Martell - Color Me Country
DYEAR=1970
DGENRE=Country
TTITLE0=Bad Case Of the Blues
TTITLE1=San Francisco Is A Lonely Town
TTITLE2=The Wedding Cake
TTITLE3=Tender Leaves Of Love
TTITLE4=I Almost Called Your Name
TTITLE5=Color Him Father
TTITLE6=There Never Was A Time
TTITLE7=You're Crying Boy, Crying
TTITLE8=Old Letter Song
TTITLE9=Then I'll Be Over You
TTITLE10=Before The Next Teardrop Falls
EXTD=
EXTT0=
EXTT1=
EXTT2=
EXTT3=
EXTT4=
EXTT5=
EXTT6=
EXTT7=
EXTT8=
EXTT9=
EXTT10=
PLAYORDER=
